<svg width="16" height="9" viewBox="0 0 16 9" fill="none" xmlns="http://www.w3.org/2000/svg">
<path d="M8.00003 0.999999C8.23368 0.999543 8.46012 1.08092 8.64003 1.23L14.64 6.23C14.8442 6.39974 14.9727 6.64365 14.9971 6.90808C15.0214 7.1725 14.9398 7.43578 14.77 7.64C14.6003 7.84422 14.3564 7.97264 14.092 7.99702C13.8275 8.0214 13.5642 7.93974 13.36 7.77L8.00003 3.29L2.64003 7.61C2.53774 7.69306 2.42004 7.7551 2.29371 7.79253C2.16737 7.82996 2.03488 7.84205 1.90385 7.82811C1.77282 7.81418 1.64584 7.77448 1.5302 7.7113C1.41456 7.64813 1.31255 7.56273 1.23003 7.46C1.13845 7.35718 1.06909 7.23655 1.0263 7.10568C0.983505 6.9748 0.968203 6.8365 0.981345 6.69944C0.994488 6.56238 1.03579 6.4295 1.10268 6.30915C1.16956 6.18879 1.26058 6.08354 1.37003 6L7.37003 1.17C7.55511 1.04448 7.77693 0.984628 8.00003 0.999999Z" fill="white"/>
</svg>
